<?xml version="1.0" standalone="no"?>
<!DOCTYPE svg PUBLIC "-//W3C//DTD SVG 20010904//EN"
 "http://www.w3.org/TR/2001/REC-SVG-20010904/DTD/svg10.dtd">
<svg version="1.0" xmlns="http://www.w3.org/2000/svg"
 width="512.000000pt" height="512.000000pt" viewBox="0 0 512.000000 512.000000"
 preserveAspectRatio="xMidYMid meet">

<g transform="translate(0.000000,512.000000) scale(0.100000,-0.100000)"
fill="#000000" stroke="none">
<path d="M2563 4306 c-1398 -447 -2545 -814 -2548 -818 -3 -3 509 -272 1138
-599 l1143 -593 594 -1143 c326 -630 596 -1141 600 -1136 4 4 370 1147 813
2539 444 1392 809 2539 813 2548 3 9 2 15 -2 15 -5 -1 -1153 -367 -2551 -813z
m793 -735 l-978 -979 -167 87 c-941 487 -1421 737 -1421 741 0 5 3517 1129
3535 1130 5 0 -430 -440 -969 -979z m632 -1015 c-310 -971 -565 -1766 -568
-1766 -3 0 -190 357 -416 793 l-412 792 976 977 c537 537 978 976 979 974 2
-2 -250 -798 -559 -1770z"/>
</g>
</svg>
